<svg xmlns="http://www.w3.org/2000/svg" viewBox="0 0 64 64"><defs><style>.cls-1{fill:#0074ff;}.cls-2{fill:#ccd3eb;}.cls-3{fill:#f5f7ff;}.cls-4{fill:#033c59;}.cls-5{fill:#96a1c3;}</style></defs><title>Maintenance</title><g id="Maintenance"><path class="cls-1" d="M61,6V18H4V6A2,2,0,0,1,6,4H59A2,2,0,0,1,61,6Z"/><path class="cls-2" d="M61,18V58a2,2,0,0,1-2,2H7a2,2,0,0,1-2-2V18Z"/><path class="cls-3" d="M56,18.9V51.29A5.88,5.88,0,0,1,50,57H4V19H6v-.1Z"/><rect class="cls-3" x="8" y="8" width="30" height="6" rx="2"/><circle class="cls-3" cx="49" cy="11" r="2"/><circle class="cls-3" cx="43" cy="11" r="2"/><circle class="cls-3" cx="55" cy="11" r="2"/><path class="cls-4" d="M10,15H36a3,3,0,0,0,3-3V10a3,3,0,0,0-3-3H10a3,3,0,0,0-3,3v2A3,3,0,0,0,10,15ZM9,10a1,1,0,0,1,1-1H36a1,1,0,0,1,1,1v2a1,1,0,0,1-1,1H10a1,1,0,0,1-1-1Z"/><circle class="cls-3" cx="49" cy="11" r="2"/><circle class="cls-3" cx="43" cy="11" r="2"/><path class="cls-5" d="M37,38a5,5,0,0,0,0,6v5.06a4.1,4.1,0,0,1-.13.94A4,4,0,0,1,33,53H17a4,4,0,0,1-4-4V32a4,4,0,0,1,4-4H33a4,4,0,0,1,4,4Z"/><path class="cls-2" d="M37,38a5,5,0,0,0,0,6v5.06a4.1,4.1,0,0,1-.13.94H21a4,4,0,0,1-4-4V29a3.66,3.66,0,0,1,.13-1H33a4,4,0,0,1,4,4Z"/><circle class="cls-3" cx="55" cy="11" r="2"/><path class="cls-4" d="M58,3H6A3,3,0,0,0,3,6V58a3,3,0,0,0,3,3H58a3,3,0,0,0,3-3V6A3,3,0,0,0,58,3ZM6,5H58a1,1,0,0,1,1,1V17H5V6A1,1,0,0,1,6,5ZM58,59H6a1,1,0,0,1-1-1V19H59V58A1,1,0,0,1,58,59Z"/><path class="cls-4" d="M13,41a1,1,0,0,0,1-1V39a1,1,0,0,0-2,0v1A1,1,0,0,0,13,41Z"/><path class="cls-4" d="M17,46h5a1,1,0,0,0,0-2H17a1,1,0,0,0,0,2Z"/><path class="cls-4" d="M17,50h5a1,1,0,0,0,0-2H17a1,1,0,0,0,0,2Z"/><polygon class="cls-1" points="28 28 28 34 25 33 22 34 22 28 28 28"/><path class="cls-1" d="M22,46H17a1,1,0,0,1,0-2h5a1,1,0,0,1,0,2Z"/><path class="cls-1" d="M22,50H17a1,1,0,0,1,0-2h5a1,1,0,0,1,0,2Z"/><path class="cls-1" d="M52,39H49.78a9.05,9.05,0,0,0-1.16-2.79l1.57-1.57a1,1,0,0,0,0-1.42l-1.41-1.41a1,1,0,0,0-1.42,0l-1.57,1.57A9.05,9.05,0,0,0,43,32.22V30a1,1,0,0,0-1-1H40a1,1,0,0,0-1,1v2.22a8.68,8.68,0,0,0-2,.72,7.59,7.59,0,0,0-.79.44l-1.57-1.57a1,1,0,0,0-1.42,0l-1.41,1.41a1,1,0,0,0,0,1.42l1.57,1.57A9.05,9.05,0,0,0,32.22,39H30a1,1,0,0,0-1,1v2a1,1,0,0,0,1,1h2.22a9.05,9.05,0,0,0,1.16,2.79l-1.57,1.57a1,1,0,0,0,0,1.42l1.41,1.41a1,1,0,0,0,1.42,0l1.57-1.57a7.59,7.59,0,0,0,.79.44,8.68,8.68,0,0,0,2,.72V52a1,1,0,0,0,1,1h2a1,1,0,0,0,1-1V49.78a9.05,9.05,0,0,0,2.79-1.16l1.57,1.57a1,1,0,0,0,1.42,0l1.41-1.41a1,1,0,0,0,0-1.42l-1.57-1.57A9.05,9.05,0,0,0,49.78,43H52a1,1,0,0,0,1-1V40A1,1,0,0,0,52,39ZM41,46a5,5,0,0,1-4-2,5,5,0,0,1,0-6,5,5,0,1,1,4,8Z"/><path class="cls-4" d="M52,38H50.54a10.42,10.42,0,0,0-.67-1.62l1-1a2,2,0,0,0,0-2.84L49.49,31.1a2,2,0,0,0-2.84,0l-1,1A10.42,10.42,0,0,0,44,31.46V30a2,2,0,0,0-2-2H40a2,2,0,0,0-2,2v1.46h0A5,5,0,0,0,33,27H17a5,5,0,0,0-5,5v3a1,1,0,0,0,2,0V32a3,3,0,0,1,3-3h4v5a1,1,0,0,0,.42.81,1,1,0,0,0,.9.14l2.68-.9,2.68.9A1.19,1.19,0,0,0,28,35a.94.94,0,0,0,.58-.19A1,1,0,0,0,29,34V29h4a3,3,0,0,1,3,2.73l-.62-.63a2,2,0,0,0-2.84,0L31.1,32.51a2,2,0,0,0,0,2.84l1,1A10.42,10.42,0,0,0,31.46,38H30a2,2,0,0,0-2,2v2a2,2,0,0,0,2,2h1.46a10.42,10.42,0,0,0,.67,1.62l-1,1a2,2,0,0,0,0,2.84l1.41,1.41a2,2,0,0,0,1.42.58,2,2,0,0,0,1.31-.5A3,3,0,0,1,33,52H17a3,3,0,0,1-3-3V44a1,1,0,0,0-2,0v5a5,5,0,0,0,5,5H33a5,5,0,0,0,4.76-3.54l.24.08V52a2,2,0,0,0,2,2h2a2,2,0,0,0,2-2V50.54a10.42,10.42,0,0,0,1.62-.67l1,1a2,2,0,0,0,2.84,0l1.41-1.41a2,2,0,0,0,0-2.84l-1-1A10.42,10.42,0,0,0,50.54,44H52a2,2,0,0,0,2-2V40A2,2,0,0,0,52,38ZM27,32.61l-1.68-.56a1,1,0,0,0-.64,0L23,32.61V29h4ZM52,42H49.78l-.08,0a.71.71,0,0,0-.2,0,.67.67,0,0,0-.18.07.65.65,0,0,0-.15.1.86.86,0,0,0-.14.13l-.1.15a.66.66,0,0,0-.09.19.19.19,0,0,0,0,.08,8.22,8.22,0,0,1-1,2.48.41.41,0,0,1,0,.08,1.07,1.07,0,0,0-.07.19.57.57,0,0,0,0,.18.6.6,0,0,0,0,.19,1.62,1.62,0,0,0,0,.19.77.77,0,0,0,.07.16,1,1,0,0,0,.11.17.56.56,0,0,0,0,.08l1.57,1.57-1.41,1.41L46.5,47.91l-.08,0a.91.91,0,0,0-.16-.11l-.18-.07-.18,0h-.19a.57.57,0,0,0-.18,0l-.19.07-.08,0a8.22,8.22,0,0,1-2.48,1,.19.19,0,0,0-.08,0l-.19.08-.15.11a.86.86,0,0,0-.13.14l-.11.15a1.27,1.27,0,0,0-.06.18.65.65,0,0,0,0,.2.24.24,0,0,0,0,.08V52H40V49.78a.24.24,0,0,0,0-.08.65.65,0,0,0,0-.2,1.27,1.27,0,0,0-.06-.18l-.11-.15a.86.86,0,0,0-.13-.14l-.15-.11-.19-.08a.19.19,0,0,0-.08,0,8.27,8.27,0,0,1-1.8-.66l0,0c-.22-.11-.43-.23-.64-.36l-.08,0-.19-.07a.57.57,0,0,0-.18,0H36.1l-.18,0-.18.07-.16.11-.08,0-1.57,1.57-1.41-1.41,1.57-1.57a.2.2,0,0,0,0-.08.66.66,0,0,0,.12-.17.77.77,0,0,0,.07-.16,1.62,1.62,0,0,0,0-.19.6.6,0,0,0,0-.19.57.57,0,0,0,0-.18,1.07,1.07,0,0,0-.07-.19.41.41,0,0,1,0-.08,8.22,8.22,0,0,1-1-2.48.19.19,0,0,0,0-.08,1.08,1.08,0,0,0-.08-.19L33,42.36a.86.86,0,0,0-.14-.13l-.15-.11-.18-.06a.65.65,0,0,0-.2,0l-.08,0H30V40h2.22a1,1,0,0,0,.36-.07l.11-.06.19-.13a.52.52,0,0,0,.1-.11,1.4,1.4,0,0,0,.12-.18l.06-.13s0-.06,0-.1a8.22,8.22,0,0,1,1-2.48.41.41,0,0,1,0-.08,1.07,1.07,0,0,0,.07-.19.57.57,0,0,0,0-.18.6.6,0,0,0,0-.19,1.62,1.62,0,0,0,0-.19.77.77,0,0,0-.07-.16.66.66,0,0,0-.12-.17.2.2,0,0,0,0-.08l-1.57-1.57,1.41-1.41,1.57,1.57h0a1.08,1.08,0,0,0,.29.2l.08,0a1.14,1.14,0,0,0,.33.06h0a.93.93,0,0,0,.33-.07l.09,0,.11,0a8.22,8.22,0,0,1,2.48-1,.19.19,0,0,0,.08,0l.19-.08.15-.11a.86.86,0,0,0,.13-.14l.11-.15a1.27,1.27,0,0,0,.06-.18.65.65,0,0,0,0-.2.24.24,0,0,0,0-.08V30h2v2.22a.24.24,0,0,0,0,.08.65.65,0,0,0,0,.2,1.27,1.27,0,0,0,.06.18l.11.15a.86.86,0,0,0,.13.14l.15.11.19.08a.19.19,0,0,0,.08,0,8.22,8.22,0,0,1,2.48,1l.11,0,.09,0a.93.93,0,0,0,.33.07h0a1.14,1.14,0,0,0,.33-.06l.08,0a1.08,1.08,0,0,0,.29-.2h0l1.57-1.57,1.41,1.41L47.91,35.5a.56.56,0,0,0,0,.08,1,1,0,0,0-.11.17.77.77,0,0,0-.07.16,1.62,1.62,0,0,0,0,.19.6.6,0,0,0,0,.19.57.57,0,0,0,0,.18,1.07,1.07,0,0,0,.07.19.41.41,0,0,1,0,.08,8.22,8.22,0,0,1,1,2.48s0,.06,0,.1l.06.13a1.4,1.4,0,0,0,.12.18.52.52,0,0,0,.1.11l.19.13.11.06a1,1,0,0,0,.36.07H52Z"/><path class="cls-4" d="M41,35a6,6,0,1,0,6,6A6,6,0,0,0,41,35Zm0,10a4,4,0,1,1,4-4A4,4,0,0,1,41,45Z"/></g></svg>